<?xml version="1.0" standalone="no"?>
<!DOCTYPE svg PUBLIC "-//W3C//DTD SVG 20010904//EN"
 "http://www.w3.org/TR/2001/REC-SVG-20010904/DTD/svg10.dtd">
<svg version="1.0" xmlns="http://www.w3.org/2000/svg"
 width="260.000000pt" height="260.000000pt" viewBox="0 0 260.000000 260.000000"
 preserveAspectRatio="xMidYMid meet">
<metadata>
Created by potrace 1.14, written by Peter Selinger 2001-2017
</metadata>
<g transform="translate(0.000000,260.000000) scale(0.100000,-0.100000)"
fill="#000000" stroke="none">
<path d="M1310 2173 c0 -5 -10 -9 -22 -9 -48 -1 -167 -17 -267 -35 -86 -16
-117 -27 -182 -65 -43 -25 -82 -44 -86 -42 -5 1 -34 20 -65 42 -48 32 -75 42
-155 56 -79 14 -324 32 -453 33 -61 0 -59 5 -34 -94 43 -174 76 -242 207 -426
33 -46 62 -83 67 -83 12 0 165 -232 183 -278 11 -27 17 -71 17 -121 0 -65 -4
-83 -21 -105 -25 -32 -19 -53 30 -107 58 -65 101 -121 101 -131 0 -21 164
-201 174 -190 3 3 6 -2 6 -11 0 -9 7 -17 16 -17 8 0 13 -3 11 -7 -4 -10 40
-53 47 -45 3 3 6 0 6 -6 0 -7 9 -12 20 -12 11 0 20 -6 20 -13 0 -8 11 -20 25
-27 13 -7 27 -21 30 -31 6 -19 16 -23 78 -34 20 -3 37 -10 37 -15 0 -6 4 -10
10 -10 5 0 27 -18 49 -40 22 -22 49 -40 60 -40 12 0 21 -4 21 -8 0 -12 10 -13
179 -17 151 -3 154 -3 175 21 14 16 35 25 65 27 23 2 46 8 50 13 3 5 24 10 45
11 24 1 43 7 48 17 5 9 16 16 25 16 9 0 14 3 11 6 -3 3 7 19 22 36 61 66 77
121 84 280 2 48 7 62 29 82 15 14 27 29 27 33 0 4 14 28 30 52 17 24 35 61 40
81 5 20 28 54 49 76 29 28 48 61 66 114 36 102 72 252 78 325 4 47 18 86 66
183 34 68 77 149 97 179 39 61 149 302 141 309 -3 3 -105 7 -228 10 -123 3
-235 5 -249 6 -38 2 -166 -32 -215 -57 l-44 -22 -113 32 c-77 22 -147 35 -218
39 -124 8 -149 11 -172 21 -10 4 -18 3 -18 -2z"/>
</g>
</svg>
